<?xml version="1.0" encoding="UTF-8"?>
<svg version="1.1" xmlns="http://www.w3.org/2000/svg" width="48" height="48">
<path d="M0 0 C1.05960938 -0.00386719 2.11921875 -0.00773438 3.2109375 -0.01171875 C4.31695313 -0.00011719 5.42296875 0.01148437 6.5625 0.0234375 C8.22152344 0.00603516 8.22152344 0.00603516 9.9140625 -0.01171875 C10.97367188 -0.00785156 12.03328125 -0.00398437 13.125 0 C14.58099609 0.00507568 14.58099609 0.00507568 16.06640625 0.01025391 C18.96679666 0.46131227 19.76620045 1.14396965 21.5625 3.3984375 C22.0575 3.91921875 22.5525 4.44 23.0625 4.9765625 C29.71751953 12.39413635 31.14615216 18.0713244 30.9140625 28.01953125 C30.15405735 35.32402518 26.37007983 40.09777256 21.5625 45.3984375 C21.129375 45.94064941 20.69625 46.48286133 20.25 47.04150391 C17.86638601 48.95818888 16.1557789 48.78630954 13.125 48.796875 C12.06539062 48.80074219 11.00578125 48.80460937 9.9140625 48.80859375 C8.80804687 48.79699219 7.70203125 48.78539062 6.5625 48.7734375 C4.90347656 48.79083984 4.90347656 48.79083984 3.2109375 48.80859375 C2.15132812 48.80472656 1.09171875 48.80085938 0 48.796875 C-0.97066406 48.79349121 -1.94132813 48.79010742 -2.94140625 48.78662109 C-5.84179666 48.33556273 -6.64120045 47.65290535 -8.4375 45.3984375 C-9.18 44.61726563 -9.18 44.61726563 -9.9375 43.8203125 C-16.59251953 36.40273865 -18.02115216 30.7255506 -17.7890625 20.77734375 C-17.02905735 13.47284982 -13.24507983 8.69910244 -8.4375 3.3984375 C-7.7878125 2.58511963 -7.7878125 2.58511963 -7.125 1.75537109 C-4.74138601 -0.16131388 -3.0307789 0.01056546 0 0 Z " fill="#1E48EF" transform="translate(17.4375,-0.3984375)"/>
<path d="M0 0 C1.05960938 -0.00386719 2.11921875 -0.00773438 3.2109375 -0.01171875 C4.31695313 -0.00011719 5.42296875 0.01148437 6.5625 0.0234375 C8.22152344 0.00603516 8.22152344 0.00603516 9.9140625 -0.01171875 C10.97367188 -0.00785156 12.03328125 -0.00398437 13.125 0 C14.58099609 0.00507568 14.58099609 0.00507568 16.06640625 0.01025391 C18.97361265 0.46237227 19.76419271 1.13598377 21.5625 3.3984375 C22.119375 4.0171875 22.67625 4.6359375 23.25 5.2734375 C24.83310295 7.83655656 24.80913348 9.43883577 24.5625 12.3984375 C23.9025 12.0684375 23.2425 11.7384375 22.5625 11.3984375 C22.5625 10.4084375 22.5625 9.4184375 22.5625 8.3984375 C21.923125 8.2953125 21.28375 8.1921875 20.625 8.0859375 C19.944375 7.8590625 19.26375 7.6321875 18.5625 7.3984375 C18.0675 5.9134375 18.0675 5.9134375 17.5625 4.3984375 C16.5725 4.3984375 15.5825 4.3984375 14.5625 4.3984375 C14.86414062 5.45804687 14.86414062 5.45804687 15.171875 6.5390625 C15.6402216 9.96735964 15.01540175 11.92326614 13.8125 15.1484375 C13.46703125 16.11265625 13.1215625 17.076875 12.765625 18.0703125 C11.5625 20.3984375 11.5625 20.3984375 8.5625 21.3984375 C8.5625 25.6884375 8.5625 29.9784375 8.5625 34.3984375 C13.70712031 32.04922887 13.70712031 32.04922887 14.5625 28.3984375 C15.8825 28.3984375 17.2025 28.3984375 18.5625 28.3984375 C18.08298204 32.71409917 16.86014982 34.6004316 13.5625 37.3984375 C9.59211076 39.38363212 4.87920357 38.93878436 0.5625 38.3984375 C-2.35244376 37.06541768 -3.32960467 35.96209399 -5.4375 33.3984375 C-5.8125 30.5859375 -5.8125 30.5859375 -5.4375 28.3984375 C-1.35677658 28.94988661 -0.52419204 29.31174546 2.5625 32.3984375 C2.5625 29.4284375 2.5625 26.4584375 2.5625 23.3984375 C0.0875 24.8834375 0.0875 24.8834375 -2.4375 26.3984375 C-2.4375 25.7384375 -2.4375 25.0784375 -2.4375 24.3984375 C-3.4275 24.3984375 -4.4175 24.3984375 -5.4375 24.3984375 C-5.4375 25.0584375 -5.4375 25.7184375 -5.4375 26.3984375 C-6.4275 27.0584375 -7.4175 27.7184375 -8.4375 28.3984375 C-8.1075 29.7184375 -7.7775 31.0384375 -7.4375 32.3984375 C-9.0875 33.0584375 -10.7375 33.7184375 -12.4375 34.3984375 C-12.4375 33.7384375 -12.4375 33.0784375 -12.4375 32.3984375 C-14.0875 32.0684375 -15.7375 31.7384375 -17.4375 31.3984375 C-17.96870367 20.89240939 -17.46619408 14.29497012 -10.875 6.0859375 C-10.070625 5.1990625 -9.26625 4.3121875 -8.4375 3.3984375 C-7.7878125 2.58511963 -7.7878125 2.58511963 -7.125 1.75537109 C-4.74138601 -0.16131388 -3.0307789 0.01056546 0 0 Z " fill="#0B84D4" transform="translate(17.4375,-0.3984375)"/>
<path d="M0 0 C0.99 0 1.98 0 3 0 C3.66 0.99 4.32 1.98 5 3 C5.99 3.33 6.98 3.66 8 4 C8.33 4.99 8.66 5.98 9 7 C9.66 6.01 10.32 5.02 11 4 C14.90366734 9.66661389 16.15144185 13.06481596 16.1875 19.9375 C16.20167969 21.16339844 16.21585938 22.38929687 16.23046875 23.65234375 C16.01676797 26.75643812 15.63998182 28.41362551 14 31 C13.34 30.34 12.68 29.68 12 29 C11.01 29.33 10.02 29.66 9 30 C8.01 30.33 7.02 30.66 6 31 C5 30 5 30 4.9375 27.4375 C4.958125 26.633125 4.97875 25.82875 5 25 C5.99 24.67 6.98 24.34 8 24 C7.67 22.68 7.34 21.36 7 20 C6.01 20 5.02 20 4 20 C4 20.66 4 21.32 4 22 C0.87709365 21.51421457 -1.99580359 21.0013988 -5 20 C-5.33 19.01 -5.66 18.02 -6 17 C-5.53980469 16.60683594 -5.07960938 16.21367187 -4.60546875 15.80859375 C-2.6750458 13.63393237 -2.10455875 11.84937337 -1.3125 9.0625 C-1.06113281 8.20785156 -0.80976563 7.35320313 -0.55078125 6.47265625 C0.14494683 3.7714907 0.14494683 3.7714907 0 0 Z " fill="#0D79D9" transform="translate(32,4)"/>
<path d="M0 0 C0.33 0.66 0.66 1.32 1 2 C3.11846285 2.68729254 3.11846285 2.68729254 5.5625 3.125 C6.80193359 3.37636719 6.80193359 3.37636719 8.06640625 3.6328125 C8.70449219 3.75398438 9.34257813 3.87515625 10 4 C10 3.34 10 2.68 10 2 C10.99 2 11.98 2 13 2 C13.495 3.98 13.495 3.98 14 6 C13.34 6.33 12.68 6.66 12 7 C12 11.29 12 15.58 12 20 C10.68 19.67 9.36 19.34 8 19 C3.53241991 18.16663653 -0.90745427 17.6695251 -5.4375 17.3125 C-7.32275391 17.15201172 -7.32275391 17.15201172 -9.24609375 16.98828125 C-13.33794103 17.00105497 -16.15432629 17.70487634 -20 19 C-24.42857143 13.85714286 -24.42857143 13.85714286 -25 10 C-24.2575 10.185625 -23.515 10.37125 -22.75 10.5625 C-20.05009037 10.99203108 -18.55368923 10.85122974 -16 10 C-16.66 8.35 -17.32 6.7 -18 5 C-16.68 4.67 -15.36 4.34 -14 4 C-14 3.34 -14 2.68 -14 2 C-13.4225 2.20625 -12.845 2.4125 -12.25 2.625 C-9.60482214 3.29255415 -9.60482214 3.29255415 -6 1 C-6 3.97 -6 6.94 -6 10 C-6.99 9.67 -7.98 9.34 -9 9 C-9.33 8.34 -9.66 7.68 -10 7 C-12.02463255 6.34786708 -12.02463255 6.34786708 -14 6 C-12.82608119 10.40219555 -11.9763139 12.6827688 -8 15 C-5.32084643 15.43549224 -5.32084643 15.43549224 -2.5 15.3125 C-1.5615625 15.30863281 -0.623125 15.30476563 0.34375 15.30078125 C3.09714777 14.98899944 4.71901872 14.5593434 7 13 C8.10493335 11.30049572 8.10493335 11.30049572 8.75 9.375 C9.36875 7.704375 9.36875 7.704375 10 6 C8.68 6 7.36 6 6 6 C5.87625 6.61875 5.7525 7.2375 5.625 7.875 C5 10 5 10 3 12 C2.01 12 1.02 12 0 12 C0 8.04 0 4.08 0 0 Z " fill="#1A53E5" transform="translate(26,22)"/>
<path d="M0 0 C2 3 2 3 1.625 6.1875 C1.315625 7.5796875 1.315625 7.5796875 1 9 C0.01 9.33 -0.98 9.66 -2 10 C-2 14.29 -2 18.58 -2 23 C3.14462031 20.65079137 3.14462031 20.65079137 4 17 C5.32 17 6.64 17 8 17 C7.52048204 21.31566167 6.29764982 23.2019941 3 26 C-0.97038924 27.98519462 -5.68329643 27.54034686 -10 27 C-12.91494376 25.66698018 -13.89210467 24.56365649 -16 22 C-16.375 19.1875 -16.375 19.1875 -16 17 C-15.01 17 -14.02 17 -13 17 C-12.773125 17.61875 -12.54625 18.2375 -12.3125 18.875 C-10.91485814 21.6090136 -10.91485814 21.6090136 -6 23 C-6 18.38 -6 13.76 -6 9 C-5.01 8.67 -4.02 8.34 -3 8 C-3 6.68 -3 5.36 -3 4 C-3.99 4 -4.98 4 -6 4 C-6.66 5.32 -7.32 6.64 -8 8 C-8.66 8 -9.32 8 -10 8 C-10.35664336 2.65034965 -10.35664336 2.65034965 -8.9375 0.0625 C-5.78433176 -1.66665678 -3.37491745 -0.8590699 0 0 Z " fill="#CEF0FB" transform="translate(28,11)"/>
<path d="M0 0 C0.33 0 0.66 0 1 0 C1 3.96 1 7.92 1 12 C6.14462031 9.65079137 6.14462031 9.65079137 7 6 C8.32 6 9.64 6 11 6 C10.52048204 10.31566167 9.29764982 12.2019941 6 15 C2.02961076 16.98519462 -2.68329643 16.54034686 -7 16 C-9.91494376 14.66698018 -10.89210467 13.56365649 -13 11 C-13.375 8.1875 -13.375 8.1875 -13 6 C-12.01 6 -11.02 6 -10 6 C-9.773125 6.61875 -9.54625 7.2375 -9.3125 7.875 C-7.62070165 10.61410209 -6.00755839 11.05024472 -3 12 C-3.66 12.66 -4.32 13.32 -5 14 C-3.68 14.33 -2.36 14.66 -1 15 C-0.67 10.05 -0.34 5.1 0 0 Z " fill="#CFE0F6" transform="translate(25,22)"/>
<path d="M0 0 C0.33 0.66 0.66 1.32 1 2 C3.11846285 2.68729254 3.11846285 2.68729254 5.5625 3.125 C6.80193359 3.37636719 6.80193359 3.37636719 8.06640625 3.6328125 C8.70449219 3.75398438 9.34257813 3.87515625 10 4 C10 3.34 10 2.68 10 2 C10.99 2 11.98 2 13 2 C13.33 3.32 13.66 4.64 14 6 C13.01 6.495 13.01 6.495 12 7 C11.34444881 9.52733235 11.34444881 9.52733235 11 12 C10.01 11.67 9.02 11.34 8 11 C8.66 9.35 9.32 7.7 10 6 C8.68 6 7.36 6 6 6 C5.87625 6.61875 5.7525 7.2375 5.625 7.875 C5 10 5 10 3 12 C2.01 12 1.02 12 0 12 C0 8.04 0 4.08 0 0 Z " fill="#1467D1" transform="translate(26,22)"/>
<path d="M0 0 C0.763125 0.66 1.52625 1.32 2.3125 2 C6.80771907 5.00751562 11.79912755 4.69185918 17 4 C19.87146994 2.63002843 19.87146994 2.63002843 22 1 C23.32 1 24.64 1 26 1 C26 3.64 26 6.28 26 9 C25.46375 8.855625 24.9275 8.71125 24.375 8.5625 C19.05821637 7.30326177 13.75769229 6.75426712 8.3125 6.375 C7.00925781 6.27960937 5.70601562 6.18421875 4.36328125 6.0859375 C1.00508072 5.80921913 1.00508072 5.80921913 -2 7 C-1.42415568 4.61435923 -0.77772405 2.33317216 0 0 Z " fill="#1F4FE7" transform="translate(12,33)"/>
<path d="M0 0 C1.32 0.33 2.64 0.66 4 1 C3.625 2.9375 3.625 2.9375 3 5 C2.01 5.495 2.01 5.495 1 6 C0.52998967 9.27555608 0.52998967 9.27555608 0.375 13.0625 C0.30023437 14.35285156 0.22546875 15.64320312 0.1484375 16.97265625 C0.09945313 17.97167969 0.05046875 18.97070312 0 20 C-4.75 19.25 -4.75 19.25 -7 17 C-6.505 15.515 -6.505 15.515 -6 14 C-4.68 15.32 -3.36 16.64 -2 18 C-2 17.24074219 -2 16.48148438 -2 15.69921875 C-2 3.625 -2 3.625 0 0 Z " fill="#296DCE" transform="translate(22,14)"/>
<path d="M0 0 C0.66 0.33 1.32 0.66 2 1 C1.67 1.99 1.34 2.98 1 4 C0.61637228 6.56218514 0.26139695 9.11791753 -0.0625 11.6875 C-0.15337891 12.38939453 -0.24425781 13.09128906 -0.33789062 13.81445312 C-0.56125994 15.54262623 -0.78098496 17.27126967 -1 19 C-2.65 19 -4.3 19 -6 19 C-5.67 18.34 -5.34 17.68 -5 17 C-4.34 17 -3.68 17 -3 17 C-3.05220703 15.41058594 -3.05220703 15.41058594 -3.10546875 13.7890625 C-3.13360399 12.40105748 -3.16090443 11.01303537 -3.1875 9.625 C-3.22520508 8.57699219 -3.22520508 8.57699219 -3.26367188 7.5078125 C-3.29296875 5.4765625 -3.29296875 5.4765625 -3 2 C-2.01 1.34 -1.02 0.68 0 0 Z " fill="#F3FCFE" transform="translate(25,18)"/>
<path d="M0 0 C0.66 0 1.32 0 2 0 C2 2.97 2 5.94 2 9 C1.01 8.67 0.02 8.34 -1 8 C-1.33 7.34 -1.66 6.68 -2 6 C-4.02463255 5.34786708 -4.02463255 5.34786708 -6 5 C-6.33 5.99 -6.66 6.98 -7 8 C-7.33 6.35 -7.66 4.7 -8 3 C-7.34 3 -6.68 3 -6 3 C-6 2.34 -6 1.68 -6 1 C-5.38125 1.20625 -4.7625 1.4125 -4.125 1.625 C-3.073125 1.810625 -3.073125 1.810625 -2 2 C-1.34 1.34 -0.68 0.68 0 0 Z " fill="#1A70E4" transform="translate(18,23)"/>
<path d="M0 0 C1.65 0.33 3.3 0.66 5 1 C5.33 1.99 5.66 2.98 6 4 C4.875 6.1875 4.875 6.1875 3 8 C0.3125 8.25 0.3125 8.25 -2 8 C-2.20086443 4.28400809 -2.1519437 3.22791555 0 0 Z " fill="#1B54E7" transform="translate(40,32)"/>
<path d="M0 0 C2.82729014 1.48432733 3.37457967 2.40516415 4.5 5.3125 C4.83 5.6425 5.16 5.9725 5.5 6.3125 C5.54063832 7.97867115 5.542721 9.64638095 5.5 11.3125 C4.84 10.9825 4.18 10.6525 3.5 10.3125 C3.5 9.3225 3.5 8.3325 3.5 7.3125 C2.860625 7.209375 2.22125 7.10625 1.5625 7 C0.881875 6.773125 0.20125 6.54625 -0.5 6.3125 C-0.83 5.3225 -1.16 4.3325 -1.5 3.3125 C-2.82 3.3125 -4.14 3.3125 -5.5 3.3125 C-5.17 2.3225 -4.84 1.3325 -4.5 0.3125 C-2.5 -0.6875 -2.5 -0.6875 0 0 Z " fill="#0696C9" transform="translate(36.5,0.6875)"/>
<path d="M0 0 C0.99 0 1.98 0 3 0 C3.226875 0.61875 3.45375 1.2375 3.6875 1.875 C5.37929835 4.61410209 6.99244161 5.05024472 10 6 C9.34 7.32 8.68 8.64 8 10 C2.04654255 7.90824468 2.04654255 7.90824468 0 5 C-0.1875 2.3125 -0.1875 2.3125 0 0 Z " fill="#D6EFFC" transform="translate(12,28)"/>
<path d="M0 0 C0.7425 0.66 1.485 1.32 2.25 2 C6.94531961 5.22094389 12.55789549 4.3170158 18 4 C17.67 4.99 17.34 5.98 17 7 C15.31970703 6.87431641 15.31970703 6.87431641 13.60546875 6.74609375 C12.13283444 6.64291555 10.66017692 6.54006821 9.1875 6.4375 C8.44951172 6.38142578 7.71152344 6.32535156 6.95117188 6.26757812 C3.63211484 6.04230276 1.18767436 5.93744188 -2 7 C-1.42415568 4.61435923 -0.77772405 2.33317216 0 0 Z " fill="#315FD9" transform="translate(12,33)"/>
<path d="M0 0 C0.99 0 1.98 0 3 0 C3.33 1.32 3.66 2.64 4 4 C3.01 4.495 3.01 4.495 2 5 C1.34444881 7.52733235 1.34444881 7.52733235 1 10 C0.01 9.67 -0.98 9.34 -2 9 C-1.34 7.35 -0.68 5.7 0 4 C-1.32 3.67 -2.64 3.34 -4 3 C-2.68 3 -1.36 3 0 3 C0 2.01 0 1.02 0 0 Z " fill="#226DDD" transform="translate(36,24)"/>
<path d="M0 0 C1.32 0.33 2.64 0.66 4 1 C3.60196439 3.88575819 3.20990931 4.82189513 0.9375 6.75 C0.298125 7.1625 -0.34125 7.575 -1 8 C-1.66 7.01 -2.32 6.02 -3 5 C-2.01 3.35 -1.02 1.7 0 0 Z " fill="#7DB6D7" transform="translate(22,14)"/>
<path d="M0 0 C1.32 0 2.64 0 4 0 C3.50168276 3.68754757 2.89932357 5.60490662 0 8 C-0.33 7.34 -0.66 6.68 -1 6 C-1.66 5.67 -2.32 5.34 -3 5 C-1.75 2.5 -1.75 2.5 0 0 Z " fill="#D2EAFD" transform="translate(32,28)"/>
<path d="M0 0 C2.5654594 2.5654594 2.54046087 4.47686668 3 8 C2.34 8 1.68 8 1 8 C1 8.66 1 9.32 1 10 C-0.32 10 -1.64 10 -3 10 C-3 9.01 -3 8.02 -3 7 C-1.68 6.67 -0.36 6.34 1 6 C0.34 4.35 -0.32 2.7 -1 1 C-0.67 0.67 -0.34 0.34 0 0 Z " fill="#185CD9" transform="translate(9,26)"/>
<path d="M0 0 C0 0.99 0 1.98 0 3 C-5.625 4.125 -5.625 4.125 -9 3 C-7.01532024 -0.96935951 -3.9567243 -1.41311582 0 0 Z " fill="#1B3AED" transform="translate(38,44)"/>
<path d="M0 0 C0.33 0.66 0.66 1.32 1 2 C-0.11375 1.95875 -1.2275 1.9175 -2.375 1.875 C-6.04366025 1.58878141 -6.04366025 1.58878141 -8 4 C-8.64767793 6.57061311 -8.64767793 6.57061311 -9 9 C-9.33 9 -9.66 9 -10 9 C-10 6.36 -10 3.72 -10 1 C-6.52674819 -0.1577506 -3.63932552 -0.06866652 0 0 Z " fill="#1D89BF" transform="translate(27,9)"/>
<path d="M0 0 C1.18851563 0.10183594 2.37703125 0.20367187 3.6015625 0.30859375 C4.51679688 0.39238281 5.43203125 0.47617187 6.375 0.5625 C6.375 0.8925 6.375 1.2225 6.375 1.5625 C4.77102723 1.73102247 3.1668131 1.89724886 1.5625 2.0625 C0.66917969 2.1553125 -0.22414063 2.248125 -1.14453125 2.34375 C-3.625 2.5625 -3.625 2.5625 -6.625 2.5625 C-7.285 1.9025 -7.945 1.2425 -8.625 0.5625 C-5.68113377 -0.90943312 -3.25109964 -0.28686173 0 0 Z " fill="#184EDE" transform="translate(19.625,38.4375)"/>
<path d="M0 0 C0.33 0.99 0.66 1.98 1 3 C1.66 3.33 2.32 3.66 3 4 C2.67 4.99 2.34 5.98 2 7 C0.02 7 -1.96 7 -4 7 C-3.525625 6.21625 -3.05125 5.4325 -2.5625 4.625 C-1.66101977 3.11051322 -0.78820515 1.5764103 0 0 Z " fill="#0290BF" transform="translate(10,1)"/>
<path d="M0 0 C1.32 0 2.64 0 4 0 C4.33 1.65 4.66 3.3 5 5 C3.68 4.67 2.36 4.34 1 4 C0.67 2.68 0.34 1.36 0 0 Z " fill="#1858F2" transform="translate(1,32)"/>
<path d="M0 0 C0.598125 0.20625 1.19625 0.4125 1.8125 0.625 C0.4925 1.615 -0.8275 2.605 -2.1875 3.625 C-2.8475 3.295 -3.5075 2.965 -4.1875 2.625 C-4.1875 3.285 -4.1875 3.945 -4.1875 4.625 C-4.8475 4.625 -5.5075 4.625 -6.1875 4.625 C-5.03076352 1.15479057 -3.91311293 -0.67081936 0 0 Z " fill="#2154DC" transform="translate(36.1875,34.375)"/>
<path d="" fill="#0D3FE3" transform="translate(0,0)"/>
<path d="" fill="#0B42E3" transform="translate(0,0)"/>
<path d="" fill="#0071BE" transform="translate(0,0)"/>
<path d="" fill="#006AF7" transform="translate(0,0)"/>
<path d="" fill="#0672AB" transform="translate(0,0)"/>
<path d="" fill="#0098A0" transform="translate(0,0)"/>
<path d="" fill="#0F63BF" transform="translate(0,0)"/>
<path d="" fill="#0C6596" transform="translate(0,0)"/>
<path d="" fill="#2449EA" transform="translate(0,0)"/>
<path d="" fill="#0654D0" transform="translate(0,0)"/>
<path d="" fill="#1750DC" transform="translate(0,0)"/>
<path d="" fill="#205DEA" transform="translate(0,0)"/>
<path d="" fill="#204ADB" transform="translate(0,0)"/>
<path d="" fill="#1F55E2" transform="translate(0,0)"/>
<path d="" fill="#214BDC" transform="translate(0,0)"/>
<path d="" fill="#000BA1" transform="translate(0,0)"/>
<path d="" fill="#1851E0" transform="translate(0,0)"/>
<path d="" fill="#2648D7" transform="translate(0,0)"/>
<path d="" fill="#1155D6" transform="translate(0,0)"/>
<path d="" fill="#1154D8" transform="translate(0,0)"/>
<path d="" fill="#2D68EA" transform="translate(0,0)"/>
<path d="" fill="#2A6AF6" transform="translate(0,0)"/>
<path d="" fill="#1683BC" transform="translate(0,0)"/>
<path d="" fill="#0F8BBC" transform="translate(0,0)"/>
<path d="" fill="#1E92C8" transform="translate(0,0)"/>
<path d="" fill="#229BCD" transform="translate(0,0)"/>
<path d="" fill="#1EA2C8" transform="translate(0,0)"/>
<path d="" fill="#0164A7" transform="translate(0,0)"/>
<path d="" fill="#16A1BD" transform="translate(0,0)"/>
<path d="" fill="#3094CB" transform="translate(0,0)"/>
<path d="" fill="#16A4AB" transform="translate(0,0)"/>
<path d="" fill="#096888" transform="translate(0,0)"/>
<path d="" fill="#1AA9AD" transform="translate(0,0)"/>
<path d="" fill="#2790AA" transform="translate(0,0)"/>
<path d="" fill="#005C97" transform="translate(0,0)"/>
<path d="" fill="#4DE0E3" transform="translate(0,0)"/>
</svg>
