<?xml version="1.0" encoding="UTF-8"?>
<svg version="1.1" xmlns="http://www.w3.org/2000/svg" width="400" height="400">
<path d="M0 0 C132 0 264 0 400 0 C400 132 400 264 400 400 C268 400 136 400 0 400 C0 268 0 136 0 0 Z " fill="#FF5232" transform="translate(0,0)"/>
<path d="M0 0 C48.51 0 97.02 0 147 0 C143.26329119 4.35949362 139.69571693 8.42572407 135.65649414 12.44116211 C135.15967636 12.93651962 134.66285858 13.43187714 134.15098572 13.94224548 C133.08491036 15.00455132 132.01768282 16.06570195 130.9493885 17.12577629 C129.25169673 18.81054864 127.55728494 20.49856111 125.8636322 22.18739319 C121.65805507 26.37969476 117.44703352 30.56651361 113.23614502 34.753479 C109.66976059 38.30001897 106.10550951 41.84867788 102.54397392 45.40008736 C100.88718234 47.05047055 99.22737249 48.69777459 97.56739807 50.34495544 C92.77646807 55.11284065 88.10528528 59.92058914 83.70988464 65.06080627 C80.25559538 68.9783431 76.51671094 72.62529578 72.8203125 76.3125 C71.96694305 77.16682617 71.11357361 78.02115234 70.23434448 78.90136719 C68.44554361 80.69084428 66.65549647 82.47907637 64.86425781 84.26611328 C62.10885719 87.01611116 59.35889303 89.77146563 56.609375 92.52734375 C54.86750847 94.26855031 53.1253322 96.0094471 51.3828125 97.75 C50.55685577 98.57798096 49.73089905 99.40596191 48.87991333 100.2590332 C47.7427034 101.39151489 47.7427034 101.39151489 46.58251953 102.546875 C45.91302277 103.21557617 45.243526 103.88427734 44.55374146 104.57324219 C43 106 43 106 42 106 C42.01411926 105.25212723 42.02823853 104.50425446 42.04278564 103.73371887 C42.1660471 96.62937992 42.23018312 89.52740905 42.23059464 82.42216969 C42.23282 78.77019888 42.25660437 75.12121201 42.33251953 71.4699707 C43.49475486 53.4078248 43.49475486 53.4078248 36.90338135 37.46366882 C34.42465264 35.03021317 31.81204702 33.04782086 29 31 C26.99339039 29.12182478 25.10131028 27.16274853 23.1875 25.1875 C22.28386719 24.29417969 21.38023438 23.40085938 20.44921875 22.48046875 C17.79738032 19.79479506 15.34566713 16.99453763 12.90234375 14.12109375 C9.92800669 10.80473846 6.74291893 7.70156147 3.5546875 4.59179688 C2.3526985 3.41169283 1.17399209 2.20795931 0 1 C0 0.67 0 0.34 0 0 Z " fill="#FFFDFD" transform="translate(95,136)"/>
<path d="M0 0 C-0.01411926 0.73756531 -0.02823853 1.47513062 -0.04278564 2.23504639 C-0.16597581 9.23669046 -0.23018287 16.23593421 -0.23059464 23.23849106 C-0.23282134 26.83782062 -0.25666331 30.4341243 -0.33251953 34.03271484 C-1.54278902 51.7892374 -1.54278902 51.7892374 5.21258545 67.23162842 C7.66901698 69.42720318 10.24266623 71.19355056 13 73 C15.00292969 75.12011719 15.00292969 75.12011719 16.4375 76.9375 C19.6001252 80.65960681 23.02990067 84.06842482 26.5 87.5 C37.7724993 98.65874896 37.7724993 98.65874896 42 105 C-6.18 105 -54.36 105 -104 105 C-100.4588815 100.86869508 -97.12143774 96.99761487 -93.29907227 93.20141602 C-92.42118546 92.32683243 -91.54329865 91.45224884 -90.6388092 90.55116272 C-89.70741623 89.62806808 -88.77602325 88.70497345 -87.81640625 87.75390625 C-86.83254422 86.77446182 -85.84898361 85.79471454 -84.8657074 84.81468201 C-81.24447047 81.20669717 -77.61778133 77.60420932 -73.99121094 74.00158691 C-70.91803149 70.94828232 -67.84700847 67.89283818 -64.77869987 64.8346386 C-63.35459579 63.41692443 -61.92740781 62.00231019 -60.50013733 60.58778381 C-56.10623492 56.21035518 -51.88288151 51.77875199 -47.84428406 47.07359314 C-43.92078031 42.6622605 -39.68602523 38.54316877 -35.5078125 34.375 C-34.51115595 33.37766839 -33.51464777 32.38018849 -32.51828003 31.38256836 C-30.4473978 29.31022348 -28.37474669 27.23966926 -26.30078125 25.17041016 C-23.63746248 22.51284037 -20.97872914 19.85073502 -18.32126045 17.18731689 C-16.27282567 15.13528202 -14.22203204 13.08561799 -12.17049789 11.03668213 C-11.1881145 10.05496685 -10.20647625 9.07250535 -9.22558975 8.08929443 C-7.86390516 6.72508684 -6.49869551 5.36440047 -5.13330078 4.00390625 C-3.9691716 2.84097046 -3.9691716 2.84097046 -2.78152466 1.65454102 C-1 0 -1 0 0 0 Z " fill="#FFFEFE" transform="translate(262,158)"/>
</svg>
